<?xml version="1.0" encoding="iso-8859-1"?>
<!-- Generator: Adobe Illustrator 19.0.0, SVG Export Plug-In . SVG Version: 6.00 Build 0)  -->
<svg version="1.1" id="Layer_1" xmlns="http://www.w3.org/2000/svg" xmlns:xlink="http://www.w3.org/1999/xlink" x="0px" y="0px"
	 viewBox="0 0 512 512" style="enable-background:new 0 0 512 512;" xml:space="preserve">
<path style="fill:#39B54A;" d="M489.82,74.67c0-25.189-20.42-45.607-45.607-45.607c-5.732,0-11.213,1.067-16.268,2.998
	c-11.716-13.109-28.745-21.368-47.71-21.368c-35.334,0-63.976,28.644-63.976,63.976c0,2.421,0.146,4.806,0.408,7.157
	c-16.936,6.086-29.051,22.285-29.051,41.316c0,24.243,19.653,43.897,43.897,43.897c5.681,0,11.103-1.091,16.087-3.055
	c10.942,11.743,26.533,19.094,43.848,19.094c33.101,0,59.936-26.834,59.936-59.936c0-1.146-0.04-2.283-0.103-3.413
	C473.112,116.333,489.82,97.454,489.82,74.67z"/>
<rect x="85.99" y="53.285" style="fill:#A7A9AC;" width="42.771" height="139.721"/>
<polygon style="fill:#EFEFEF;" points="69.7,453.19 69.7,240.406 233.196,74.67 396.691,240.406 396.691,453.19 "/>
<path style="fill:#F15A29;" d="M407.251,278.201L233.196,111.667L59.14,278.201l-36.96-38.629L227.712,42.919
	c3.067-2.934,7.901-2.934,10.967,0l205.532,196.652L407.251,278.201z"/>
<rect x="48.748" y="453.187" style="fill:#A7A9AC;" width="368.897" height="48.117"/>
<rect x="131.263" y="303.137" style="fill:#0EDDF0;" width="88.396" height="150.05"/>
<path style="fill:#FFDE17;" d="M255.191,191.907L255.191,191.907c-12.302-11.77-31.69-11.77-43.992,0l0,0
	c-20.727,19.831-6.69,54.805,21.996,54.805l0,0C261.881,246.712,275.917,211.737,255.191,191.907z"/>
<rect x="271.337" y="288.167" style="fill:#0EDDF0;" width="82.59" height="112.626"/>
<g>
	<path style="fill:#231F20;" d="M444.211,18.369c-4.477,0-8.895,0.525-13.204,1.565C417.261,7.191,399.116,0,380.235,0
		c-41.173,0-74.67,33.497-74.67,74.67c0,0.146,0,0.293,0.001,0.442c-3.717,2.012-7.139,4.446-10.242,7.208l-49.253-47.125
		c-7.22-6.907-18.531-6.907-25.751,0l-80.863,77.369V53.285c0-5.906-4.787-10.693-10.693-10.693H85.993
		c-5.906,0-10.693,4.787-10.693,10.693v120.662l-60.513,57.899c-2.05,1.96-3.236,4.656-3.298,7.49
		c-0.062,2.835,1.003,5.579,2.964,7.628l36.96,38.629c2.067,2.16,4.822,3.26,7.594,3.295v153.609H48.748
		c-5.906,0-10.693,4.787-10.693,10.693v48.117c0,5.906,4.787,10.693,10.693,10.693h368.897c5.906,0,10.693-4.787,10.693-10.693
		V453.19c0-5.906-4.787-10.693-10.693-10.693h-10.261V288.887c2.77-0.034,5.526-1.133,7.594-3.294l36.96-38.629
		c1.96-2.049,3.027-4.792,2.964-7.628s-1.249-5.529-3.298-7.49l-42.232-40.407c28.732-7.544,50.378-32.757,52.527-63.288
		c22.836-7.452,38.613-28.675,38.613-53.483C500.513,43.625,475.255,18.369,444.211,18.369z M96.686,63.977h21.385v69.047
		l-21.385,20.461V63.977z M406.952,490.615H59.44v-26.732h347.512V490.615z M208.959,442.498h-67.008V313.829h67.008V442.498z
		 M230.344,442.498V303.136c0-5.906-4.787-10.693-10.693-10.693h-88.393c-5.906,0-10.693,4.787-10.693,10.693v139.361H80.392
		V272.665l152.802-146.201l152.802,146.201v169.833H230.344z M406.918,263.083L240.588,103.94c-2.067-1.978-4.729-2.966-7.392-2.966
		c-2.662,0-5.325,0.989-7.392,2.966L59.473,263.083l-22.177-23.177L233.196,52.471l195.898,187.434L406.918,263.083z
		 M449.636,109.165c-5.433,0.845-9.339,5.672-9.032,11.162c0.058,1.037,0.087,1.959,0.087,2.816
		c0,27.153-22.09,49.243-49.243,49.243c-0.69,0-1.372-0.036-2.055-0.064l-20.18-19.309l40.775-40.775
		c0.093-0.093,0.173-0.195,0.263-0.291c0.096-0.089,0.197-0.169,0.291-0.263c4.175-4.175,4.175-10.946,0-15.123l-34.126-34.126
		c-4.175-4.175-10.946-4.175-15.123,0c-4.175,4.175-4.175,10.946,0,15.123l26.565,26.565l-34.102,34.101L310.85,97.173
		c2.785-2.232,5.955-4.034,9.433-5.284c4.658-1.673,7.559-6.326,7.011-11.245c-0.228-2.047-0.343-4.057-0.343-5.974
		c0-29.381,23.903-53.285,53.285-53.285c15.144,0,29.627,6.487,39.737,17.8c2.955,3.307,7.646,4.448,11.789,2.863
		c3.985-1.522,8.175-2.295,12.452-2.295c19.252,0,34.915,15.663,34.915,34.915C479.127,91.718,466.448,106.548,449.636,109.165z"/>
	<path style="fill:#231F20;" d="M272.647,230.728c6.604-16.455,2.748-34.29-10.064-46.548c-16.478-15.766-42.296-15.767-58.775,0
		c-12.811,12.257-16.667,30.093-10.064,46.548c6.604,16.455,21.72,26.676,39.452,26.676S266.043,247.182,272.647,230.728z
		 M252.8,222.763c-2.572,6.408-9.073,13.256-19.604,13.256s-17.032-6.848-19.604-13.256c-2.572-6.408-2.609-15.85,5.001-23.13
		c4.095-3.918,9.35-5.877,14.604-5.877s10.509,1.959,14.604,5.877C255.409,206.913,255.372,216.354,252.8,222.763z"/>
	<path style="fill:#231F20;" d="M353.92,277.474h-82.588c-5.906,0-10.693,4.787-10.693,10.693v112.629
		c0,5.906,4.787,10.693,10.693,10.693h82.588c5.906,0,10.693-4.787,10.693-10.693V288.166
		C364.613,282.261,359.826,277.474,353.92,277.474z M343.228,298.859v46.869h-61.203v-46.869H343.228z M282.025,390.104v-22.99
		h61.203v22.99H282.025z"/>
	<path style="fill:#231F20;" d="M421.845,70.134l-0.959,0.959c-4.175,4.175-4.175,10.946,0,15.123
		c2.088,2.088,4.825,3.132,7.561,3.132c2.736,0,5.474-1.044,7.561-3.132l0.959-0.959c4.175-4.175,4.175-10.946,0-15.123
		C432.791,65.958,426.021,65.959,421.845,70.134z"/>
</g>
<g>
</g>
<g>
</g>
<g>
</g>
<g>
</g>
<g>
</g>
<g>
</g>
<g>
</g>
<g>
</g>
<g>
</g>
<g>
</g>
<g>
</g>
<g>
</g>
<g>
</g>
<g>
</g>
<g>
</g>
</svg>
