<?xml version="1.0" encoding="iso-8859-1"?>
<!-- Generator: Adobe Illustrator 19.0.0, SVG Export Plug-In . SVG Version: 6.00 Build 0)  -->
<svg version="1.1" id="Capa_1" xmlns="http://www.w3.org/2000/svg" xmlns:xlink="http://www.w3.org/1999/xlink" x="0px" y="0px"
	 viewBox="0 0 511.999 511.999" style="enable-background:new 0 0 511.999 511.999;" xml:space="preserve">
<path style="fill:#585A60;" d="M7.172,218.675c0-61.804,45.837-112.875,105.368-121.142c8.15-42.031,45.133-73.772,89.547-73.772
	h55.916v91.236v36.802v209.429v55.126v71.882h-37.251c-40.083,0-72.577-32.491-72.577-72.574c0-0.009,0-0.017,0-0.026
	c-0.344,0.004-0.689,0.026-1.036,0.026c-48.671,0-88.125-39.455-88.125-88.126c0-2.904,0.15-5.774,0.427-8.607
	C27.847,296.807,7.172,260.166,7.172,218.675z"/>
<path style="fill:#414356;" d="M169.142,427.309c-0.005-0.022-0.013-0.038-0.018-0.06c-2.832-11.515-11.545-12.105-11.545-12.105
	l-0.001-0.002c-43.385-4.693-77.326-40.868-78.506-85.215c0-0.001,0-0.001,0-0.003c-1.022-10.604-6.79-16.346-8.292-17.674
	c-0.059-0.049-0.116-0.101-0.174-0.151c-0.11-0.093-0.188-0.156-0.188-0.156l0.001-0.005C43.989,289.5,27.2,256.059,27.2,218.676
	c0-57.775,40.057-106.166,93.91-118.984c0.005-0.001,0.01-0.004,0.016-0.006c11.209-3.244,13.674-11.154,13.674-11.154l0.019-0.011
	c11.348-37.469,46.12-64.759,87.295-64.759h-20.026c-44.414,0-81.397,31.742-89.547,73.772
	C53.009,105.8,7.172,156.871,7.172,218.675c0,41.492,20.674,78.133,52.266,100.255c-0.275,2.833-0.427,5.702-0.427,8.607
	c0,48.671,39.453,88.126,88.125,88.126c0.348,0,0.692-0.022,1.036-0.026c0,0.009,0,0.017,0,0.026
	c0,40.083,32.493,72.574,72.577,72.574h20.026C204.659,488.236,174.716,461.853,169.142,427.309z"/>
<path style="fill:#F7AC16;" d="M504.828,218.675c0-61.804-45.839-112.875-105.368-121.142c-8.15-42.031-45.133-73.772-89.551-73.772
	h-53.911v91.236v36.802v209.429v55.126v71.882h35.251c40.025,0,72.573-32.422,72.573-72.6c49.401,0.554,89.166-39.285,89.166-88.1
	c0-2.904-0.15-5.774-0.425-8.607C484.151,296.807,504.828,260.166,504.828,218.675z"/>
<polygon style="fill:#EF9614;" points="276.026,361.228 276.026,151.799 276.026,114.997 276.026,23.761 255.998,23.761 
	255.998,114.997 255.998,151.799 255.998,361.228 255.998,416.354 255.998,488.236 276.026,488.236 276.026,416.354 "/>
<path d="M505.268,224.015c-4.131-0.432-7.82,2.566-8.249,6.691c-3.018,28.976-16.988,55.562-38.84,74.576
	c-3.489-15.019-12.228-39.588-33.53-55.324c-3.338-2.464-8.038-1.757-10.502,1.579c-2.465,3.336-1.758,8.039,1.578,10.503
	c26.139,19.309,29.65,57.005,29.693,57.508c0.002,0.022,0.007,0.044,0.009,0.066c0.001,0.013,0,0.026,0.001,0.039
	c0.258,2.675,0.39,5.327,0.39,7.884c0,44.345-35.992,80.435-80.298,80.608c-3.448-0.397-31.491-4.197-44.56-23.8
	c-2.301-3.451-6.964-4.383-10.414-2.083c-3.451,2.3-4.384,6.963-2.083,10.414c12.901,19.352,35.705,26.577,47.891,29.144
	c-3.113,32.999-30.965,58.907-64.764,58.907h-27.743V352.385c34.925-2.254,53.868-20.086,63.736-35.208
	c11.323-17.347,13.212-34.652,13.288-35.38c0.425-4.127-2.577-7.815-6.702-8.239c-4.125-0.426-7.816,2.575-8.239,6.702
	c-0.015,0.142-1.569,14.376-10.923,28.707c-11.2,17.159-28.4,26.652-51.159,28.338V31.271h46.401
	c39.954,0,74.47,28.388,82.141,67.525c0.348,2.894,3.979,38.84-27.034,51.081c-0.088,0.035-0.17,0.079-0.257,0.117
	c-0.995-1.623-2.018-3.127-3.036-4.51c-8.831-11.992-19.332-17.701-19.774-17.938c-3.657-1.958-8.207-0.582-10.167,3.074
	c-1.959,3.656-0.582,8.208,3.073,10.167c0.322,0.172,32.13,17.735,22.29,57.672c-0.992,4.027,1.468,8.097,5.495,9.089
	c0.603,0.148,1.208,0.22,1.802,0.22c3.375,0,6.443-2.292,7.286-5.716c3.798-15.413,2.583-28.211-0.699-38.417
	c17.642-7.138,29.452-21.05,34.151-40.288c1.53-6.264,2.058-12.13,2.163-16.778c44.821,9.843,79.676,45.51,88.074,91.224
	c0.751,4.081,4.67,6.783,8.745,6.029c4.078-0.749,6.779-4.664,6.029-8.743c-4.935-26.856-18.016-51.096-37.828-70.098
	c-18.593-17.832-41.556-29.542-66.683-34.062c-10.906-43.575-50.363-74.67-95.773-74.67c-10.336,0-79.972,0-90.196,0
	c-4.149,0-7.51,3.363-7.51,7.51s3.362,7.51,7.51,7.51h28.775v57.26h-15.377c-2.951-9.006-11.431-15.531-21.412-15.531
	c-12.423,0-22.531,10.107-22.531,22.53s10.108,22.53,22.531,22.53c9.599,0,17.809-6.036,21.049-14.51h15.738v94.867h-66.059h-7.51
	v-29.664c8.741-3.1,15.02-11.447,15.02-21.239c0-12.424-10.108-22.53-22.531-22.53s-22.53,10.107-22.53,22.53
	c0,9.791,6.279,18.139,15.02,21.239v29.664h-28.685c-2.924-9.053-11.428-15.623-21.443-15.623c-12.423,0-22.53,10.107-22.53,22.531
	s10.108,22.53,22.53,22.53c9.564,0,17.75-5.992,21.013-14.418h36.625h15.02h66.06v65.34H119.893
	c-3.101-8.741-11.448-15.02-21.239-15.02c-12.423,0-22.53,10.107-22.53,22.53s10.108,22.53,22.53,22.53
	c9.79,0,18.138-6.278,21.239-15.02h128.934v72.738h-27.748c-3.101-8.741-11.449-15.02-21.239-15.02
	c-12.423,0-22.531,10.107-22.531,22.53s10.108,22.531,22.531,22.531c9.79,0,18.138-6.28,21.239-15.02h27.748v99.168h-27.739
	c-35.878,0-65.067-29.188-65.067-65.09c0-2.007-0.803-3.929-2.23-5.34c-1.428-1.411-3.362-2.221-5.365-2.169
	c-0.214,0.002-0.428,0.009-0.643,0.017c-0.102,0.003-0.205,0.009-0.309,0.009c-44.451,0-80.615-36.164-80.615-80.616
	c0-2.562,0.131-5.213,0.392-7.879c0.262-2.697-0.948-5.325-3.167-6.879c-30.722-21.516-49.062-56.695-49.062-94.106
	c0-56.992,42.514-105.873,98.89-113.703c3.181-0.442,5.729-2.857,6.341-6.009c6.427-33.15,33.024-59.733,66.18-66.149
	c4.072-0.788,6.735-4.727,5.947-8.8c-0.787-4.073-4.73-6.736-8.8-5.946c-19.333,3.74-36.95,13.112-50.947,27.102
	c-12.736,12.729-21.649,28.46-25.975,45.754c-28.74,5.194-55.008,20.031-74.427,42.149C11.445,156.741,0,187.142,0,218.675
	c0,40.868,19.348,79.377,51.974,103.873c-0.09,1.681-0.135,3.349-0.135,4.989c0,50.672,39.611,92.265,89.492,95.442
	c3.708,40.743,38.063,72.77,79.756,72.77c10.226,0,60.274,0,70.499,0c41.683,0,76.032-32.015,79.75-72.769
	c49.884-3.177,89.499-44.771,89.499-95.442c0-1.637-0.045-3.304-0.134-4.987c28.909-21.698,47.514-54.368,51.256-90.286
	C512.388,228.137,509.392,224.444,505.268,224.015z M212.039,103.04c-4.142,0-7.51-3.369-7.51-7.51c0-4.142,3.369-7.51,7.51-7.51
	s7.51,3.369,7.51,7.51C219.549,99.671,216.181,103.04,212.039,103.04z M110.108,212.837c-4.142,0-7.51-3.369-7.51-7.51
	c0-4.142,3.369-7.51,7.51-7.51s7.51,3.369,7.51,7.51C117.618,209.468,114.25,212.837,110.108,212.837z M167.747,155.026
	c-4.142,0-7.51-3.369-7.51-7.51s3.369-7.51,7.51-7.51c4.142,0,7.51,3.369,7.51,7.51S171.888,155.026,167.747,155.026z
	 M98.655,293.799c-4.142,0-7.51-3.369-7.51-7.51s3.369-7.51,7.51-7.51c4.142,0,7.51,3.369,7.51,7.51S102.796,293.799,98.655,293.799
	z M199.84,381.558c-4.142,0-7.51-3.369-7.51-7.51c0-4.142,3.369-7.51,7.51-7.51s7.51,3.369,7.51,7.51
	C207.351,378.189,203.982,381.558,199.84,381.558z"/>
<g>
</g>
<g>
</g>
<g>
</g>
<g>
</g>
<g>
</g>
<g>
</g>
<g>
</g>
<g>
</g>
<g>
</g>
<g>
</g>
<g>
</g>
<g>
</g>
<g>
</g>
<g>
</g>
<g>
</g>
</svg>
