<?xml version="1.0" encoding="iso-8859-1"?>
<!-- Generator: Adobe Illustrator 19.0.0, SVG Export Plug-In . SVG Version: 6.00 Build 0)  -->
<svg version="1.1" id="Capa_1" xmlns="http://www.w3.org/2000/svg" xmlns:xlink="http://www.w3.org/1999/xlink" x="0px" y="0px"
	 viewBox="0 0 512 512" style="enable-background:new 0 0 512 512;" xml:space="preserve">
<path style="fill:#F5C86E;" d="M194.244,70.807c-25.404,0-46-20.596-46-46c0-5.182,0.87-10.159,2.45-14.807
	c-20.436,4.684-35.686,22.968-35.686,44.825c0,25.404,20.596,46,46,46c20.222,0,37.384-13.056,43.55-31.193
	C201.241,70.392,197.792,70.807,194.244,70.807z"/>
<polygon style="fill:#239B87;" points="171.137,502 129.655,404.34 164.123,404.34 120.728,302.178 153.238,302.178 90.569,118 
	27.9,302.178 60.409,302.178 17.015,404.34 51.483,404.34 10,502 "/>
<polygon style="fill:#32C8AF;" points="226,502 218.986,423.669 211.101,342.726 145.432,194 82.763,341.726 115.272,341.726 
	71.878,423.669 106.345,423.669 64.863,502 "/>
<polygon style="fill:#239B87;" points="340.8,502 382.282,404.34 347.814,404.34 391.209,302.178 358.699,302.178 421.368,118 
	484.037,302.178 451.528,302.178 494.922,404.34 460.454,404.34 501.937,502 "/>
<polygon style="fill:#32C8AF;" points="285.937,502 292.951,423.669 301.836,341.726 366.505,194 429.174,341.726 396.665,341.726 
	440.059,423.669 405.592,423.669 447.074,502 "/>
<polygon style="fill:#239B87;" points="363.956,502 308.438,405.72 354.568,405.72 296.491,305 340,305 256.127,123.423 
	172.254,305 215.763,305 157.686,405.72 203.816,405.72 148.298,502 "/>
<path d="M206.684,206.617l-0.158,0.343c-2.314,5.015-0.125,10.956,4.889,13.271c1.357,0.626,2.782,0.922,4.184,0.922
	c3.78,0,7.398-2.154,9.086-5.812l0.158-0.343c2.314-5.015,0.125-10.956-4.889-13.271
	C214.938,199.413,208.998,201.603,206.684,206.617z"/>
<path d="M475.63,414.34h19.355c3.356,0,6.488-1.684,8.339-4.481c1.852-2.799,2.177-6.34,0.865-9.428l-37.486-88.253H484.1
	c3.226,0,6.253-1.556,8.13-4.178c1.878-2.623,2.375-5.99,1.336-9.044l-62.669-184.178c-1.379-4.053-5.185-6.778-9.467-6.778
	c-0.001,0-0.003,0-0.004,0c-4.283,0.002-8.089,2.731-9.465,6.787l-19.931,58.75c-1.774,5.23,1.027,10.908,6.257,12.683
	c5.232,1.775,10.909-1.026,12.683-6.257l10.476-30.878l48.689,143.093h-18.544c-3.356,0-6.488,1.684-8.339,4.481
	c-1.852,2.799-2.177,6.34-0.865,9.428l37.486,88.253h-19.355c-3.356,0-6.488,1.684-8.339,4.481c-1.852,2.799-2.177,6.34-0.865,9.428
	L486.888,492H454.02l-30.891-58.331h17.856c3.507,0,6.758-1.838,8.567-4.843s1.911-6.737,0.27-9.837l-35.621-67.263h15.898
	c3.355,0,6.486-1.683,8.338-4.479c1.852-2.798,2.178-6.337,0.868-9.426l-62.669-147.727c-1.568-3.695-5.192-6.095-9.206-6.095
	s-7.639,2.399-9.206,6.095l-17.169,40.473c-2.157,5.084,0.216,10.954,5.301,13.111c5.083,2.156,10.954-0.217,13.111-5.301
	l7.963-18.771l47.564,112.12h-17.405c-3.507,0-6.758,1.838-8.567,4.843s-1.912,6.737-0.27,9.837l35.621,67.263h-17.856
	c-3.507,0-6.758,1.838-8.567,4.843s-1.911,6.737-0.27,9.837L431.389,492h-61.656l-43.986-76.281h28.82
	c3.572,0,6.872-1.905,8.659-4.998c1.787-3.092,1.789-6.903,0.004-9.997L313.8,315H340c3.411,0,6.586-1.738,8.424-4.611
	c1.838-2.874,2.084-6.485,0.654-9.582L265.205,119.23c-1.635-3.54-5.179-5.807-9.078-5.807s-7.443,2.267-9.078,5.807l-21.534,46.62
	c-2.316,5.014-0.129,10.956,4.885,13.271c5.016,2.316,10.956,0.13,13.271-4.885l12.456-26.967L324.366,295h-27.875h-80.728h-27.875
	l21.252-46.009c2.316-5.014,0.129-10.956-4.885-13.271c-5.015-2.314-10.956-0.129-13.271,4.885l-27.809,60.202
	c-1.431,3.097-1.184,6.708,0.654,9.582c1.838,2.873,5.014,4.611,8.424,4.611h26.2l-49.431,85.724
	c-1.784,3.094-1.783,6.905,0.004,9.997c1.787,3.093,5.087,4.998,8.659,4.998h28.82L142.521,492H81.474l33.708-63.651
	c1.641-3.1,1.539-6.832-0.27-9.837s-5.06-4.843-8.567-4.843H88.489l35.621-67.263c1.642-3.1,1.539-6.832-0.27-9.837
	s-5.06-4.843-8.567-4.843H97.867l47.564-112.121l7.963,18.772c2.157,5.084,8.029,7.455,13.111,5.301
	c5.084-2.157,7.458-8.027,5.301-13.111l-17.169-40.473c-1.568-3.695-5.192-6.095-9.206-6.095s-7.638,2.399-9.206,6.095
	L73.556,337.822c-1.31,3.089-0.984,6.628,0.868,9.426c1.852,2.797,4.983,4.479,8.338,4.479H98.66L63.04,418.99
	c-1.641,3.1-1.539,6.832,0.27,9.837s5.06,4.843,8.567,4.843h17.856L58.843,492h-33.73l35.574-83.751
	c1.312-3.088,0.987-6.629-0.865-9.428c-1.852-2.798-4.983-4.481-8.339-4.481H32.127l37.486-88.253
	c1.312-3.088,0.987-6.629-0.865-9.428c-1.852-2.798-4.983-4.481-8.339-4.481H41.865l48.689-143.093l10.476,30.878
	c1.774,5.229,7.452,8.034,12.683,6.257c5.23-1.774,8.031-7.452,6.257-12.683l-19.931-58.75c-1.376-4.056-5.182-6.785-9.465-6.787
	c-0.001,0-0.003,0-0.004,0c-4.281,0-8.088,2.726-9.467,6.778l-62.67,184.178c-1.039,3.054-0.542,6.421,1.336,9.044
	c1.877,2.622,4.905,4.178,8.13,4.178h17.397L7.811,400.431c-1.312,3.088-0.987,6.629,0.865,9.428
	c1.852,2.798,4.983,4.481,8.339,4.481H36.37L0.796,498.091c-1.312,3.088-0.987,6.629,0.865,9.428C3.512,510.317,6.644,512,10,512
	h492c3.356,0,6.488-1.684,8.339-4.481c1.852-2.799,2.177-6.34,0.865-9.428L475.63,414.34z M174.996,395.719L221.54,315h69.173
	l46.545,80.719h-28.82H205.112c-0.249,0-0.492,0.019-0.736,0.037c-0.187-0.01-0.371-0.037-0.56-0.037H174.996z M165.608,492
	l43.986-76.281h93.068L346.647,492H165.608z"/>
<path d="M365.888,64c0,5.522,4.477,10,10,10H502c5.523,0,10-4.478,10-10s-4.477-10-10-10H375.888
	C370.365,54,365.888,58.478,365.888,64z"/>
<path d="M341.4,71.07c1.87-1.859,2.93-4.439,2.93-7.069c0-2.63-1.06-5.21-2.93-7.07c-1.86-1.86-4.43-2.93-7.07-2.93
	c-2.63,0-5.21,1.069-7.07,2.93s-2.93,4.44-2.93,7.07c0,2.63,1.07,5.21,2.93,7.069c1.86,1.86,4.44,2.931,7.07,2.931
	C336.96,74,339.54,72.93,341.4,71.07z"/>
<path d="M240.938,34h175.86c5.523,0,10-4.478,10-10s-4.477-10-10-10h-175.86c-5.523,0-10,4.478-10,10S235.415,34,240.938,34z"/>
<path d="M276.5,104c0,5.522,4.477,10,10,10h77.456c5.523,0,10-4.478,10-10s-4.477-10-10-10H286.5C280.977,94,276.5,98.478,276.5,104
	z"/>
<path d="M161.008,110.825c23.99,0,45.296-15.261,53.018-37.974c1.167-3.432,0.385-7.227-2.043-9.918s-6.124-3.854-9.657-3.049
	c-2.672,0.612-5.392,0.923-8.082,0.923c-19.851,0-36-16.149-36-36c0-3.945,0.646-7.844,1.918-11.588
	c1.167-3.433,0.385-7.228-2.044-9.919s-6.125-3.857-9.658-3.047c-25.584,5.864-43.452,28.305-43.452,54.571
	C105.008,85.704,130.13,110.825,161.008,110.825z M138.281,26.847c0.982,27.326,21.638,49.723,48.197,53.423
	c-6.605,6.609-15.691,10.555-25.47,10.555c-19.851,0-36-16.149-36-36C125.008,43.616,130.069,33.49,138.281,26.847z"/>
<g>
</g>
<g>
</g>
<g>
</g>
<g>
</g>
<g>
</g>
<g>
</g>
<g>
</g>
<g>
</g>
<g>
</g>
<g>
</g>
<g>
</g>
<g>
</g>
<g>
</g>
<g>
</g>
<g>
</g>
</svg>
